<?xml version="1.0" encoding="UTF-8" standalone="no"?><!DOCTYPE svg PUBLIC "-//W3C//DTD SVG 1.1//EN" "http://www.w3.org/Graphics/SVG/1.1/DTD/svg11.dtd"><svg width="100%" height="100%" viewBox="0 0 272 319" version="1.1" xmlns="http://www.w3.org/2000/svg" xmlns:xlink="http://www.w3.org/1999/xlink" xml:space="preserve" xmlns:serif="http://www.serif.com/" style="fill-rule:evenodd;clip-rule:evenodd;stroke-linecap:round;stroke-linejoin:round;stroke-miterlimit:1.5;"><path d="M187.72,95.095l-93.617,0l-26.853,41.771l94.066,0l26.404,-41.771Z" style="fill:#f1da16;stroke:#000;stroke-width:3.12px;"/><path d="M130.035,136.866l-62.785,34.928" style="fill:none;stroke:#808080;stroke-width:4.47px;"/><path d="M130.035,136.866l-62.785,34.928" style="fill:none;stroke:#808080;stroke-width:4.47px;"/><path d="M67.25,208.533l0,55.785" style="fill:none;stroke:#808080;stroke-width:4.47px;"/><path d="M201.445,208.533l0,55.785" style="fill:none;stroke:#808080;stroke-width:4.47px;"/><path d="M193.178,171.794l-65.247,-34.928" style="fill:none;stroke:#808080;stroke-width:4.47px;"/><path d="M130.035,64.001l0,31.094" style="fill:none;stroke:#808080;stroke-width:4.47px;"/><g><rect x="90.514" y="27.262" width="79.042" height="36.739" style="fill:#1b1dc7;stroke:#4d4d4d;stroke-width:3.12px;"/><text x="108.676px" y="51.709px" style="font-family:'ArialMT', 'Arial', sans-serif;font-size:19.746px;fill:#ebebeb;stroke:#4d4d4d;stroke-width:0.24px;stroke-linecap:butt;stroke-miterlimit:2;">G<tspan x="124.535px 135.874px 147.213px " y="51.709px 51.709px 51.709px ">oal</tspan></text></g><ellipse cx="67.002" cy="273.757" rx="31.641" ry="24.083" style="fill:#21c345;stroke:#404040;stroke-width:4.47px;"/><ellipse cx="201.197" cy="273.757" rx="31.641" ry="24.083" style="fill:#21c345;stroke:#404040;stroke-width:4.47px;"/><g><rect x="27.729" y="171.794" width="79.042" height="36.739" style="fill:#1b1dc7;stroke:#4d4d4d;stroke-width:3.12px;"/><text x="45.891px" y="196.241px" style="font-family:'ArialMT', 'Arial', sans-serif;font-size:19.746px;fill:#ebebeb;stroke:#4d4d4d;stroke-width:0.24px;stroke-linecap:butt;stroke-miterlimit:2;">G<tspan x="61.75px 73.089px 84.428px " y="196.241px 196.241px 196.241px ">oal</tspan></text></g><g><rect x="153.657" y="171.794" width="79.042" height="36.739" style="fill:#1b1dc7;stroke:#4d4d4d;stroke-width:3.12px;"/><text x="171.819px" y="196.241px" style="font-family:'ArialMT', 'Arial', sans-serif;font-size:19.746px;fill:#ebebeb;">G<tspan x="187.678px 199.017px 210.356px " y="196.241px 196.241px 196.241px ">oal</tspan></text></g><text x="89.599px" y="121.091px" style="font-family:'ArialMT', 'Arial', sans-serif;font-size:19.746px;stroke:#000;stroke-width:0.24px;stroke-linecap:butt;stroke-miterlimit:2;">S<tspan x="103.197px 108.862px 115.651px 126.99px 132.655px 143.994px 155.332px " y="121.091px 121.091px 121.091px 121.091px 121.091px 121.091px 121.091px ">trategy</tspan></text><g transform="matrix(0.155867,0,0,0.150958,98.4328,-63.7788)"><text x="543.268px" y="2216.19px" style="font-family:'ArialMT', 'Arial', sans-serif;font-size:100px;stroke:#000;stroke-width:1.56px;stroke-linecap:butt;stroke-miterlimit:2;">Solu-</text><text x="543.268px" y="2319.46px" style="font-family:'ArialMT', 'Arial', sans-serif;font-size:100px;stroke:#000;stroke-width:1.56px;stroke-linecap:butt;stroke-miterlimit:2;">tion</text></g><g transform="matrix(0.155867,0,0,0.150958,-35.7624,-63.7788)"><text x="543.268px" y="2216.19px" style="font-family:'ArialMT', 'Arial', sans-serif;font-size:100px;stroke:#000;stroke-width:1.56px;stroke-linecap:butt;stroke-miterlimit:2;">Solu-</text><text x="543.268px" y="2319.46px" style="font-family:'ArialMT', 'Arial', sans-serif;font-size:100px;stroke:#000;stroke-width:1.56px;stroke-linecap:butt;stroke-miterlimit:2;">tion</text></g></svg>