<?xml version="1.0" encoding="UTF-8" standalone="no"?><!DOCTYPE svg PUBLIC "-//W3C//DTD SVG 1.1//EN" "http://www.w3.org/Graphics/SVG/1.1/DTD/svg11.dtd"><svg width="100%" height="100%" viewBox="0 0 436 488" version="1.1" xmlns="http://www.w3.org/2000/svg" xmlns:xlink="http://www.w3.org/1999/xlink" xml:space="preserve" xmlns:serif="http://www.serif.com/" style="fill-rule:evenodd;clip-rule:evenodd;stroke-linecap:round;stroke-linejoin:round;stroke-miterlimit:1.5;"><path d="M302.4,127.426l-144.15,0l-41.348,66.41l144.841,0l40.657,-66.41Z" style="fill:#f1da16;stroke:#000;stroke-width:3.12px;"/><path d="M213.578,193.836l-96.676,55.529" style="fill:none;stroke:#808080;stroke-width:4.47px;"/><path d="M213.578,193.836l-96.676,55.529" style="fill:none;stroke:#808080;stroke-width:4.47px;"/><path d="M116.902,307.775l0,88.69" style="fill:none;stroke:#808080;stroke-width:4.47px;"/><path d="M323.533,307.775l0,88.69" style="fill:none;stroke:#808080;stroke-width:4.47px;"/><path d="M310.804,249.365l-100.466,-55.529" style="fill:none;stroke:#808080;stroke-width:4.47px;"/><path d="M213.578,77.991l0,49.435" style="fill:none;stroke:#808080;stroke-width:4.47px;"/><g><rect x="152.725" y="19.582" width="121.706" height="58.409" style="fill:#1b1dc7;stroke:#4d4d4d;stroke-width:3.12px;"/><text x="180.69px" y="58.45px" style="font-family:'ArialMT', 'Arial', sans-serif;font-size:31.393px;fill:#ebebeb;stroke:#4d4d4d;stroke-width:0.24px;stroke-linecap:butt;stroke-miterlimit:2;">Goal</text></g><ellipse cx="116.52" cy="411.472" rx="48.72" ry="38.288" style="fill:#21c345;stroke:#404040;stroke-width:4.47px;"/><ellipse cx="323.151" cy="411.472" rx="48.72" ry="38.288" style="fill:#21c345;stroke:#404040;stroke-width:4.47px;"/><g><rect x="56.049" y="249.365" width="121.706" height="58.409" style="fill:#1b1dc7;stroke:#4d4d4d;stroke-width:3.12px;"/><text x="84.015px" y="288.233px" style="font-family:'ArialMT', 'Arial', sans-serif;font-size:31.393px;fill:#ebebeb;stroke:#4d4d4d;stroke-width:0.24px;stroke-linecap:butt;stroke-miterlimit:2;">Goal</text></g><g><rect x="249.951" y="249.365" width="121.706" height="58.409" style="fill:#1b1dc7;stroke:#4d4d4d;stroke-width:3.12px;"/><text x="277.916px" y="288.233px" style="font-family:'ArialMT', 'Arial', sans-serif;font-size:31.393px;fill:#ebebeb;">Goal</text></g><text x="151.314px" y="168.755px" style="font-family:'ArialMT', 'Arial', sans-serif;font-size:31.393px;stroke:#000;stroke-width:0.24px;stroke-linecap:butt;stroke-miterlimit:2;">Strategy</text><g transform="matrix(0.24,0,0,0.24,164.917,-125.159)"><text x="543.268px" y="2216.19px" style="font-family:'ArialMT', 'Arial', sans-serif;font-size:100px;stroke:#000;stroke-width:1px;stroke-linecap:butt;stroke-miterlimit:2;">Solu-</text><text x="543.268px" y="2319.46px" style="font-family:'ArialMT', 'Arial', sans-serif;font-size:100px;stroke:#000;stroke-width:1px;stroke-linecap:butt;stroke-miterlimit:2;">tion</text></g><g transform="matrix(0.24,0,0,0.24,-41.7138,-125.159)"><text x="543.268px" y="2216.19px" style="font-family:'ArialMT', 'Arial', sans-serif;font-size:100px;stroke:#000;stroke-width:1px;stroke-linecap:butt;stroke-miterlimit:2;">Solu-</text><text x="543.268px" y="2319.46px" style="font-family:'ArialMT', 'Arial', sans-serif;font-size:100px;stroke:#000;stroke-width:1px;stroke-linecap:butt;stroke-miterlimit:2;">tion</text></g></svg>